# xmcd CD database file
# Copyright (C) 1997 Ti Kan
# 
# Track frame offsets:
#     150
#     16980
#     36250
#     84402
#     107432
#     140777
#     173570
#     211342
#     250834
#     291600
# 
# Disc length: 4294 seconds
# 
# Revision: 1
# Processed by: cddbd v1.4b41PL1 Copyright (c) Steve Scherf et al.
# Submitted via: DiscPlay 4.0.3
# 
DISCID=8a10c40a
DTITLE=Albert King - Live
DYEAR=1900
DGENRE=
TTITLE0=Watermelon Man
TTITLE1=Don't Burn Down The Bridge
TTITLE2=Blues At Sunrise
TTITLE3=That What The Blues Is All About
TTITLE4=Stormy Monday
TTITLE5=Kansas City
TTITLE6=I'm Gonna Call You As Soon As The Sun Goes Down
TTITLE7=Matchbox Holds My Clothes
TTITLE8=As The Years Go Passing By
TTITLE9=I'll Plays The Blues For You
EXTD=Compilaci n Argentina realizada por el programa Radial Musica Maestro
EXTT0=
EXTT1=
EXTT2=
EXTT3=
EXTT4=
EXTT5=
EXTT6=
EXTT7=
EXTT8=
EXTT9=
PLAYORDER=
